<svg xmlns="http://www.w3.org/2000/svg" viewBox="0 0 48 48" fill="none">
  <defs>
    <linearGradient id="carGradient" x1="0%" y1="0%" x2="100%" y2="100%">
      <stop offset="0%" style="stop-color:#3b82f6;stop-opacity:1" />
      <stop offset="100%" style="stop-color:#2563eb;stop-opacity:1" />
    </linearGradient>
  </defs>
  
  <!-- Car body (enlarged) -->
  <path d="M8 28h3v3c0 1.7 1.3 3 3 3s3-1.3 3-3h12c0 1.7 1.3 3 3 3s3-1.3 3-3h3c1.7 0 3-1.3 3-3v-9l-4.5-9H12.5l-4.5 9v9c0 1.7 1.3 3 3 3z" fill="url(#carGradient)" stroke="white" stroke-width="1"/>
  
  <!-- Car windows (enlarged) -->
  <path d="M14 12h20l3 6H11l3-6z" fill="#e5f3ff" opacity="0.9" stroke="#3b82f6" stroke-width="0.5"/>
  
  <!-- Car wheels (enlarged) -->
  <circle cx="14" cy="31" r="3.5" fill="#374151" stroke="#1f2937" stroke-width="1"/>
  <circle cx="34" cy="31" r="3.5" fill="#374151" stroke="#1f2937" stroke-width="1"/>
  <circle cx="14" cy="31" r="2" fill="#9ca3af"/>
  <circle cx="34" cy="31" r="2" fill="#9ca3af"/>
  
  <!-- Car headlights (enlarged) -->
  <circle cx="10" cy="21" r="1.5" fill="#fbbf24" stroke="#f59e0b" stroke-width="0.5"/>
  <circle cx="38" cy="21" r="1.5" fill="#fbbf24" stroke="#f59e0b" stroke-width="0.5"/>
  
  <!-- Parking "P" symbol overlay (enlarged) -->
  <rect x="19" y="14" width="10" height="12" rx="2" fill="white" opacity="0.95" stroke="#2563eb" stroke-width="1"/>
  <text x="24" y="22" font-family="Arial, sans-serif" font-size="9" font-weight="bold" text-anchor="middle" fill="#2563eb">P</text>
</svg> 